<svg width="256" height="256" viewBox="0 0 256 256" fill="none" xmlns="http://www.w3.org/2000/svg">
<path fill-rule="evenodd" clip-rule="evenodd" d="M128 256C198.692 256 256 198.692 256 128C256 57.3076 198.692 0 128 0C57.3074 0 0 57.3076 0 128C0 198.692 57.3074 256 128 256ZM167.932 59.6277C169.875 52.7235 163.175 48.6408 157.056 53.0003L71.6359 113.853C64.9998 118.581 66.0436 128 73.2039 128H95.6973V127.826H139.536L103.816 140.429L88.0686 196.372C86.1249 203.276 92.8244 207.359 98.9441 202.999L184.364 142.147C191 137.419 189.956 128 182.796 128H148.685L167.932 59.6277Z" fill="#A8FF35"/>
</svg>
